<?xml version="1.0" encoding="utf-8"?>
<!-- Generator: Adobe Illustrator 16.0.0, SVG Export Plug-In . SVG Version: 6.00 Build 0)  -->
<!DOCTYPE svg PUBLIC "-//W3C//DTD SVG 1.1//EN" "http://www.w3.org/Graphics/SVG/1.1/DTD/svg11.dtd">
<svg version="1.1" id="Layer_1" xmlns="http://www.w3.org/2000/svg" xmlns:xlink="http://www.w3.org/1999/xlink" x="0px" y="0px"
	 width="2048px" height="2048px" viewBox="0 0 2048 2048" enable-background="new 0 0 2048 2048" xml:space="preserve">
<g>
	<path fill="#F8F7F7" stroke="#000000" stroke-miterlimit="10" d="M2021.172,1136.845c0.613-5.733,1.229-11.469,1.844-17.203
		c0-0.204,0-0.409,0-0.613c2.866-31.335,4.506-63.078,4.506-95.027c0-554.188-449.332-1003.52-1003.521-1003.52
		c-38.297,0-76.186,2.253-113.459,6.349c-0.41,0-0.819,0-1.229,0.205l0,0C441.139,80.282,70.861,455.68,25.19,925.9l0,0
		c-0.41,3.687-0.614,7.168-1.024,10.854c-0.615,7.578-1.229,15.155-1.639,22.938c-0.205,2.048-0.205,4.096-0.41,6.144
		c-0.409,5.325-0.614,10.854-0.819,16.179c0,1.435,0,2.663-0.205,4.098c-0.41,12.491-0.819,25.189-0.819,37.888
		c0,554.188,449.332,1003.521,1003.52,1003.521c12.698,0,25.19-0.41,37.889-0.819c1.435,0,2.867,0,4.302-0.205
		c5.323-0.205,10.648-0.41,15.974-0.819c2.253-0.205,4.301-0.205,6.554-0.408c7.783-0.41,15.36-1.024,23.144-1.64
		c3.48-0.205,6.759-0.614,10.239-0.819l0,0c470.426-45.67,845.824-415.947,899.072-884.12l0,0
		C2020.967,1138.074,2021.172,1137.459,2021.172,1136.845z M1943.962,1024c0,12.288-0.409,24.781-0.819,37.068
		c-49.767-2.252-99.123-8.191-147.66-17.612l29.49-91.955l-73.522-23.757l-31.334,97.688
		c-36.659-10.239-72.704-22.527-108.339-36.863c-23.963-9.83-47.514-20.274-70.656-31.948l55.501-82.125l-63.692-43.008
		l-59.598,88.062c-58.98-35.43-114.277-77.005-165.479-124.519l71.064-71.065l-54.681-54.682l-71.066,71.064
		c-46.079-49.766-86.63-103.219-121.446-160.356l89.088-60.416l-43.213-64.104L1094.042,512
		c-12.493-24.781-24.167-49.971-34.611-75.98c-13.722-33.791-25.396-68.198-35.431-103.015l100.352-32.154l-23.552-73.523
		l-95.025,30.72c-10.24-50.381-16.386-101.376-18.843-152.985c12.287-0.41,24.576-0.819,37.068-0.819
		C1531.289,104.039,1943.962,516.711,1943.962,1024z M104.039,1024c0-6.349,0.205-12.697,0.205-19.046
		c43.827,2.662,87.04,8.19,129.639,16.384l-34.202,107.11L273.203,1152l36.25-112.845c37.068,10.239,73.728,22.731,109.771,37.272
		c24.985,10.035,49.356,21.301,73.318,33.178l-64.717,95.438l63.896,43.213l68.608-101.376
		c58.163,35.021,112.435,76.187,162.815,122.88l-81.307,81.307l54.682,54.682l81.307-81.306
		c48.129,51.813,90.316,107.93,125.952,167.937l-100.147,67.788l43.213,63.897l94.004-63.692
		c11.06,22.323,21.3,44.852,30.721,68.198c15.154,37.684,28.058,75.98,38.707,114.688l-110.184,35.227l23.554,73.522l103.833-33.383
		c7.781,40.96,12.901,82.534,15.564,124.519c-6.35,0.205-12.698,0.205-19.047,0.205C516.711,1943.962,104.039,1531.29,104.039,1024z
		 M1120.051,1938.842c-3.07-48.128-9.216-96.052-18.637-143.563l116.327-37.274l-23.757-73.318l-110.389,35.432
		c-19.046-69.632-45.056-137.626-78.232-202.957l97.28-65.945l-43.214-63.896l-91.546,62.054
		c-38.093-63.078-83.147-123.289-135.372-179.199l82.329-82.33l-54.682-54.682l-82.33,82.33
		c-54.477-50.791-112.845-94.822-174.284-132.301l61.235-90.521l-63.898-43.213l-64.921,95.846
		c-65.331-33.587-133.529-60.211-203.162-79.667L367.41,857.91l-73.523-23.552l-36.25,113.05
		c-49.152-10.035-98.713-16.589-148.685-19.661c44.441-424.551,378.88-764.109,801.177-816.538
		c2.867,57.139,10.035,114.278,21.914,170.598L806.91,321.743l23.552,73.523l120.218-38.502
		c19.457,68.198,45.875,134.962,79.054,199.065L922.01,628.736l43.213,63.896l102.4-69.428
		c37.068,60.416,80.689,117.965,130.867,171.623l-92.57,92.773l54.682,54.683l92.569-92.57
		c55.296,51.405,114.483,96.052,176.743,133.939l-70.246,103.629l63.896,43.213l73.934-109.158
		c64.102,32.769,130.662,58.572,198.859,77.823l-39.32,122.88l73.523,23.553l41.163-128.205
		c54.478,11.061,109.773,18.022,165.068,20.891C1884.365,1560.166,1544.807,1894.604,1120.051,1938.842z"/>
</g>
</svg>
