<?xml version="1.0" encoding="utf-8"?>
<!-- Svg Vector Icons : http://www.onlinewebfonts.com/icon -->
<!DOCTYPE svg PUBLIC "-//W3C//DTD SVG 1.1//EN" "http://www.w3.org/Graphics/SVG/1.1/DTD/svg11.dtd">
<svg version="1.1" xmlns="http://www.w3.org/2000/svg" xmlns:xlink="http://www.w3.org/1999/xlink" x="0px" y="0px" viewBox="0 0 1000 1000" enable-background="new 0 0 1000 1000" xml:space="preserve">
<metadata> Svg Vector Icons : http://www.onlinewebfonts.com/icon </metadata>
<g><g><g><path d="M158.4,746l23.4-31.2l35.1,23.4c15.6-27.3,31.2-54.7,42.9-85.9l-39-11.7l11.7-39l39,11.7c7.8-31.2,11.7-62.5,15.6-93.7h-39v-39h39c0-31.2-7.8-66.4-15.6-93.7l-39,11.7l-11.7-39l39-11.7c-11.7-31.2-23.4-58.6-42.9-85.9l-35.1,23.4L158.4,254l35.1-23.4c-15.6-23.4-35.1-42.9-54.7-62.5C60.8,254,10,371.2,10,500c0,113.2,39,218.6,101.5,300.6c11.7,11.7,27.3,31.2,27.3,31.2c19.5-19.5,39-39,54.7-58.6L158.4,746z"/><path d="M857.3,168.1c-19.5,19.5-39,39-54.7,58.6l35.1,23.4l-23.4,35.1l-35.1-23.4c-15.6,27.3-31.2,54.7-42.9,85.9l39,11.7l-11.7,39l-39-11.7c-3.9,27.3-11.7,62.5-11.7,93.7h39v39h-39c0,31.2,7.8,66.4,15.6,93.7l39-11.7l11.7,39l-39,11.7c11.7,31.2,23.4,58.6,42.9,85.9l35.1-23.4l23.4,31.2l-35.1,23.4c15.6,19.5,35.1,42.9,54.7,58.6c0,0,15.6-15.6,23.4-27.3C951,718.6,990,609.3,990,496.1C986.1,371.2,939.2,257.9,857.3,168.1z"/><path d="M744,816.3L720.6,785l31.2-19.5c-19.5-31.2-35.1-62.5-46.9-97.6l-39,7.8l-11.7-39l35.1-11.7c-7.8-31.2-15.6-70.3-15.6-105.4h-39v-39h39c0-35.1,7.8-74.2,15.6-105.4l-35.1-11.7l11.7-39l35.1,11.7c11.7-35.1,27.3-66.4,46.9-97.6l-31.2-19.5l23.4-31.2l31.2,19.5c19.5-23.4,39-46.9,58.6-66.4C744,62.7,626.9,12,498,12s-246,50.8-331.9,128.8c19.5,19.5,39,42.9,58.6,66.4l27.3-19.5l23.4,31.2l-31.2,19.5c19.5,31.2,35.1,62.5,46.9,97.6l35.1-11.7l11.7,39l-35.1,11.7c7.8,35.1,15.6,70.3,15.6,105.4h39v39h-39c0,35.1-7.8,74.2-15.6,105.4l35.1,11.7l-11.7,39L291.1,664c-11.7,35.1-27.3,66.4-46.9,97.6l31.2,19.5l-23.4,31.2l-27.3-19.5c-19.5,23.4-39,46.9-58.6,66.4c85.9,82,203,128.8,331.9,128.8s246-50.8,331.9-128.8c-19.5-19.5-39-42.9-58.6-62.5L744,816.3z"/></g></g><g></g><g></g><g></g><g></g><g></g><g></g><g></g><g></g><g></g><g></g><g></g><g></g><g></g><g></g><g></g></g>
</svg>