<?xml version="1.0" encoding="utf-8"?>
<!-- Svg Vector Icons : http://www.onlinewebfonts.com/icon -->
<!DOCTYPE svg PUBLIC "-//W3C//DTD SVG 1.1//EN" "http://www.w3.org/Graphics/SVG/1.1/DTD/svg11.dtd">
<svg version="1.1" xmlns="http://www.w3.org/2000/svg" xmlns:xlink="http://www.w3.org/1999/xlink" x="0px" y="0px" viewBox="0 0 1000 1000" enable-background="new 0 0 1000 1000" xml:space="preserve">
<metadata> Svg Vector Icons : http://www.onlinewebfonts.com/icon </metadata>
<g><path d="M986.9,555.1c0.3-2.8,0.6-5.6,0.9-8.4c0-0.1,0-0.2,0-0.3c1.4-15.3,2.2-30.8,2.2-46.4c0-270.6-219.4-490-490-490c-18.7,0-37.2,1.1-55.4,3.1c-0.2,0-0.4,0-0.6,0.1c0,0,0,0,0,0C215.4,39.2,34.6,222.5,12.3,452.1c0,0,0,0,0,0c-0.2,1.8-0.3,3.5-0.5,5.3c-0.3,3.7-0.6,7.4-0.8,11.2c-0.1,1-0.1,2-0.2,3c-0.2,2.6-0.3,5.3-0.4,7.9c0,0.7,0,1.3-0.1,2c-0.2,6.1-0.4,12.3-0.4,18.5c0,270.6,219.4,490,490,490c6.2,0,12.3-0.2,18.5-0.4c0.7,0,1.4,0,2.1-0.1c2.6-0.1,5.2-0.2,7.8-0.4c1.1-0.1,2.1-0.1,3.2-0.2c3.8-0.2,7.5-0.5,11.3-0.8c1.7-0.1,3.3-0.3,5-0.4c0,0,0,0,0,0C777.5,965.4,960.8,784.6,986.8,556c0,0,0,0,0,0C986.8,555.7,986.9,555.4,986.9,555.1z M949.2,500c0,6-0.2,12.1-0.4,18.1c-24.3-1.1-48.4-4-72.1-8.6l14.4-44.9L855.2,453l-15.3,47.7c-17.9-5-35.5-11-52.9-18c-11.7-4.8-23.2-9.9-34.5-15.6l27.1-40.1L748.5,406l-29.1,43c-28.8-17.3-55.8-37.6-80.8-60.8l34.7-34.7l-26.7-26.7l-34.7,34.7c-22.5-24.3-42.3-50.4-59.3-78.3l43.5-29.5L575,222.4l-40.8,27.6c-6.1-12.1-11.8-24.4-16.9-37.1c-6.7-16.5-12.4-33.3-17.3-50.3l49-15.7l-11.5-35.9L491.1,126c-5-24.6-8-49.5-9.2-74.7c6-0.2,12-0.4,18.1-0.4C747.7,50.8,949.2,252.3,949.2,500z M50.8,500c0-3.1,0.1-6.2,0.1-9.3c21.4,1.3,42.5,4,63.3,8L97.5,551l35.9,11.5l17.7-55.1c18.1,5,36,11.1,53.6,18.2c12.2,4.9,24.1,10.4,35.8,16.2l-31.6,46.6l31.2,21.1l33.5-49.5c28.4,17.1,54.9,37.2,79.5,60l-39.7,39.7l26.7,26.7l39.7-39.7c23.5,25.3,44.1,52.7,61.5,82l-48.9,33.1l21.1,31.2l45.9-31.1c5.4,10.9,10.4,21.9,15,33.3c7.4,18.4,13.7,37.1,18.9,56l-53.8,17.2l11.5,35.9l50.7-16.3c3.8,20,6.3,40.3,7.6,60.8c-3.1,0.1-6.2,0.1-9.3,0.1C252.3,949.2,50.8,747.7,50.8,500z M546.9,946.7c-1.5-23.5-4.5-46.9-9.1-70.1l56.8-18.2L583,822.6l-53.9,17.3c-9.3-34-22-67.2-38.2-99.1l47.5-32.2l-21.1-31.2l-44.7,30.3c-18.6-30.8-40.6-60.2-66.1-87.5l40.2-40.2L420,553.3l-40.2,40.2c-26.6-24.8-55.1-46.3-85.1-64.6l29.9-44.2l-31.2-21.1l-31.7,46.8c-31.9-16.4-65.2-29.4-99.2-38.9l16.9-52.6l-35.9-11.5l-17.7,55.2c-24-4.9-48.2-8.1-72.6-9.6C74.9,245.7,238.2,79.9,444.4,54.3c1.4,27.9,4.9,55.8,10.7,83.3L394,157.1l11.5,35.9l58.7-18.8c9.5,33.3,22.4,65.9,38.6,97.2L450.2,307l21.1,31.2l50-33.9c18.1,29.5,39.4,57.6,63.9,83.8L540,433.4l26.7,26.7l45.2-45.2c27,25.1,55.9,46.9,86.3,65.4l-34.3,50.6l31.2,21.1l36.1-53.3c31.3,16,63.8,28.6,97.1,38l-19.2,60l35.9,11.5l20.1-62.6c26.6,5.4,53.6,8.8,80.6,10.2C920.1,761.8,754.3,925.1,546.9,946.7z"/></g>
</svg>